%TF.GenerationSoftware,KiCad,Pcbnew,9.0.0*%
%TF.CreationDate,2025-04-09T12:13:31+05:30*%
%TF.ProjectId,ES lab Assignment,4553206c-6162-4204-9173-7369676e6d65,rev?*%
%TF.SameCoordinates,Original*%
%TF.FileFunction,Copper,L1,Top*%
%TF.FilePolarity,Positive*%
%FSLAX46Y46*%
G04 Gerber Fmt 4.6, Leading zero omitted, Abs format (unit mm)*
G04 Created by KiCad (PCBNEW 9.0.0) date 2025-04-09 12:13:31*
%MOMM*%
%LPD*%
G01*
G04 APERTURE LIST*
G04 Aperture macros list*
%AMRoundRect*
0 Rectangle with rounded corners*
0 $1 Rounding radius*
0 $2 $3 $4 $5 $6 $7 $8 $9 X,Y pos of 4 corners*
0 Add a 4 corners polygon primitive as box body*
4,1,4,$2,$3,$4,$5,$6,$7,$8,$9,$2,$3,0*
0 Add four circle primitives for the rounded corners*
1,1,$1+$1,$2,$3*
1,1,$1+$1,$4,$5*
1,1,$1+$1,$6,$7*
1,1,$1+$1,$8,$9*
0 Add four rect primitives between the rounded corners*
20,1,$1+$1,$2,$3,$4,$5,0*
20,1,$1+$1,$4,$5,$6,$7,0*
20,1,$1+$1,$6,$7,$8,$9,0*
20,1,$1+$1,$8,$9,$2,$3,0*%
G04 Aperture macros list end*
%TA.AperFunction,SMDPad,CuDef*%
%ADD10R,0.400000X1.650000*%
%TD*%
%TA.AperFunction,SMDPad,CuDef*%
%ADD11R,1.825000X0.700000*%
%TD*%
%TA.AperFunction,SMDPad,CuDef*%
%ADD12R,2.000000X1.500000*%
%TD*%
%TA.AperFunction,SMDPad,CuDef*%
%ADD13R,1.350000X2.000000*%
%TD*%
%TA.AperFunction,HeatsinkPad*%
%ADD14O,1.350000X1.700000*%
%TD*%
%TA.AperFunction,HeatsinkPad*%
%ADD15O,1.100000X1.500000*%
%TD*%
%TA.AperFunction,SMDPad,CuDef*%
%ADD16R,1.430000X2.500000*%
%TD*%
%TA.AperFunction,SMDPad,CuDef*%
%ADD17RoundRect,0.375000X-0.625000X-0.375000X0.625000X-0.375000X0.625000X0.375000X-0.625000X0.375000X0*%
%TD*%
%TA.AperFunction,SMDPad,CuDef*%
%ADD18RoundRect,0.500000X-0.500000X-1.400000X0.500000X-1.400000X0.500000X1.400000X-0.500000X1.400000X0*%
%TD*%
%TA.AperFunction,SMDPad,CuDef*%
%ADD19RoundRect,0.150000X-0.850000X-0.150000X0.850000X-0.150000X0.850000X0.150000X-0.850000X0.150000X0*%
%TD*%
%TA.AperFunction,SMDPad,CuDef*%
%ADD20RoundRect,0.381000X-0.889000X-0.381000X0.889000X-0.381000X0.889000X0.381000X-0.889000X0.381000X0*%
%TD*%
%TA.AperFunction,ComponentPad*%
%ADD21C,2.200000*%
%TD*%
%TA.AperFunction,ComponentPad*%
%ADD22R,1.800000X1.800000*%
%TD*%
%TA.AperFunction,ComponentPad*%
%ADD23C,1.800000*%
%TD*%
%TA.AperFunction,Conductor*%
%ADD24C,0.200000*%
%TD*%
G04 APERTURE END LIST*
D10*
%TO.P,J1,1,VBUS*%
%TO.N,Net-(J1-VBUS)*%
X148300000Y-108785000D03*
%TO.P,J1,2,D-*%
%TO.N,unconnected-(J1-D--Pad2)*%
X148950000Y-108785000D03*
%TO.P,J1,3,D+*%
%TO.N,unconnected-(J1-D+-Pad3)*%
X149600000Y-108785000D03*
%TO.P,J1,4,ID*%
%TO.N,unconnected-(J1-ID-Pad4)*%
X150250000Y-108785000D03*
%TO.P,J1,5,GND*%
%TO.N,Net-(D1-K)*%
X150900000Y-108785000D03*
D11*
%TO.P,J1,6,Shield*%
%TO.N,unconnected-(J1-Shield-Pad6)*%
X146650000Y-109985000D03*
D12*
%TO.N,unconnected-(J1-Shield-Pad6)_1*%
X146750000Y-108685000D03*
D13*
%TO.N,unconnected-(J1-Shield-Pad6)_2*%
X146870000Y-110735000D03*
D14*
%TO.N,unconnected-(J1-Shield-Pad6)_3*%
X146870000Y-111665000D03*
D15*
%TO.N,unconnected-(J1-Shield-Pad6)_4*%
X147180000Y-108665000D03*
D16*
%TO.N,unconnected-(J1-Shield-Pad6)_5*%
X148640000Y-111935000D03*
%TO.N,unconnected-(J1-Shield-Pad6)_6*%
X150560000Y-111935000D03*
D15*
%TO.N,unconnected-(J1-Shield-Pad6)_7*%
X152020000Y-108665000D03*
D14*
%TO.N,unconnected-(J1-Shield-Pad6)_8*%
X152330000Y-111665000D03*
D13*
%TO.N,unconnected-(J1-Shield-Pad6)_9*%
X152350000Y-110735000D03*
D12*
%TO.N,unconnected-(J1-Shield-Pad6)_10*%
X152500000Y-108665000D03*
D11*
%TO.N,unconnected-(J1-Shield-Pad6)_11*%
X152600000Y-109985000D03*
%TD*%
D17*
%TO.P,U4,1,GND*%
%TO.N,Net-(D1-K)*%
X134500000Y-68700000D03*
%TO.P,U4,2,VO*%
%TO.N,Net-(U1-3.3V)*%
X134500000Y-71000000D03*
D18*
X140800000Y-71000000D03*
D17*
%TO.P,U4,3,VI*%
%TO.N,Net-(J1-VBUS)*%
X134500000Y-73300000D03*
%TD*%
D19*
%TO.P,U2,1,VSUP*%
%TO.N,unconnected-(U2-VSUP-Pad1)*%
X158500000Y-74155000D03*
%TO.P,U2,2,BASE*%
%TO.N,unconnected-(U2-BASE-Pad2)*%
X158500000Y-75425000D03*
%TO.P,U2,3,AVDD*%
%TO.N,Net-(U1-3.3V)*%
X158500000Y-76695000D03*
%TO.P,U2,4,VFB*%
%TO.N,unconnected-(U2-VFB-Pad4)*%
X158500000Y-77965000D03*
%TO.P,U2,5,AGND*%
%TO.N,Net-(D1-K)*%
X158500000Y-79235000D03*
%TO.P,U2,6,VBG*%
%TO.N,unconnected-(U2-VBG-Pad6)*%
X158500000Y-80505000D03*
%TO.P,U2,7,INA-*%
%TO.N,unconnected-(U2-INA--Pad7)*%
X158500000Y-81775000D03*
%TO.P,U2,8,INA+*%
%TO.N,unconnected-(U2-INA+-Pad8)*%
X158500000Y-83045000D03*
%TO.P,U2,9,INB-*%
%TO.N,unconnected-(U2-INB--Pad9)*%
X163500000Y-83045000D03*
%TO.P,U2,10,INB+*%
%TO.N,unconnected-(U2-INB+-Pad10)*%
X163500000Y-81775000D03*
%TO.P,U2,11,PD_SCK*%
%TO.N,Net-(U1-GPIO14)*%
X163500000Y-80505000D03*
%TO.P,U2,12,DOUT*%
%TO.N,Net-(U1-GPIO12)*%
X163500000Y-79235000D03*
%TO.P,U2,13,XO*%
%TO.N,unconnected-(U2-XO-Pad13)*%
X163500000Y-77965000D03*
%TO.P,U2,14,XI*%
%TO.N,unconnected-(U2-XI-Pad14)*%
X163500000Y-76695000D03*
%TO.P,U2,15,RATE*%
%TO.N,unconnected-(U2-RATE-Pad15)*%
X163500000Y-75425000D03*
%TO.P,U2,16,DVDD*%
%TO.N,unconnected-(U2-DVDD-Pad16)*%
X163500000Y-74155000D03*
%TD*%
D20*
%TO.P,U1,1,3.3V*%
%TO.N,Net-(U1-3.3V)*%
X96140000Y-68200000D03*
%TO.P,U1,2,GND*%
%TO.N,Net-(D1-K)*%
X96140000Y-70740000D03*
%TO.P,U1,3,GPIO1*%
%TO.N,unconnected-(U1-GPIO1-Pad3)*%
X96140000Y-73280000D03*
%TO.P,U1,4,GPIO3*%
%TO.N,unconnected-(U1-GPIO3-Pad4)*%
X96140000Y-75820000D03*
%TO.P,U1,5,SD_CLK*%
%TO.N,unconnected-(U1-SD_CLK-Pad5)*%
X96140000Y-78360000D03*
%TO.P,U1,6,SD_D2*%
%TO.N,unconnected-(U1-SD_D2-Pad6)*%
X96140000Y-80900000D03*
%TO.P,U1,7,SD_D1*%
%TO.N,unconnected-(U1-SD_D1-Pad7)*%
X96140000Y-83440000D03*
%TO.P,U1,8,SD_CMD*%
%TO.N,unconnected-(U1-SD_CMD-Pad8)*%
X96140000Y-85980000D03*
%TO.P,U1,9,SD_D0*%
%TO.N,unconnected-(U1-SD_D0-Pad9)*%
X96140000Y-88520000D03*
%TO.P,U1,10,SD_D3*%
%TO.N,unconnected-(U1-SD_D3-Pad10)*%
X96140000Y-91060000D03*
%TO.P,U1,11,GPIO5*%
%TO.N,Net-(U1-GPIO5)*%
X96140000Y-93600000D03*
%TO.P,U1,12,ADC*%
%TO.N,unconnected-(U1-ADC-Pad12)*%
X119000000Y-93600000D03*
%TO.P,U1,13,RSTB*%
%TO.N,unconnected-(U1-RSTB-Pad13)*%
X119000000Y-91060000D03*
%TO.P,U1,14,CHIP_E*%
%TO.N,unconnected-(U1-CHIP_E-Pad14)*%
X119000000Y-88520000D03*
%TO.P,U1,15,GPIO16*%
%TO.N,unconnected-(U1-GPIO16-Pad15)*%
X119000000Y-85980000D03*
%TO.P,U1,16,GPIO12*%
%TO.N,Net-(U1-GPIO12)*%
X119000000Y-83440000D03*
%TO.P,U1,17,GPIO14*%
%TO.N,Net-(U1-GPIO14)*%
X119000000Y-80900000D03*
%TO.P,U1,18,GPIO13*%
%TO.N,unconnected-(U1-GPIO13-Pad18)*%
X119000000Y-78360000D03*
%TO.P,U1,19,GPIO15*%
%TO.N,unconnected-(U1-GPIO15-Pad19)*%
X119000000Y-75820000D03*
%TO.P,U1,20,GPIO-2*%
%TO.N,unconnected-(U1-GPIO-2-Pad20)*%
X119000000Y-73280000D03*
%TO.P,U1,21,GPIO-0*%
%TO.N,unconnected-(U1-GPIO-0-Pad21)*%
X119000000Y-70740000D03*
%TO.P,U1,22,GPIO4*%
%TO.N,Net-(D1-A)*%
X119000000Y-68200000D03*
%TD*%
D21*
%TO.P,K1,11*%
%TO.N,Net-(U1-GPIO5)*%
X134430000Y-115120000D03*
%TO.P,K1,12*%
%TO.N,unconnected-(K1-Pad12)*%
X142050000Y-107500000D03*
%TO.P,K1,14*%
%TO.N,unconnected-(K1-Pad14)*%
X142050000Y-115120000D03*
D22*
%TO.P,K1,A1*%
%TO.N,Net-(U1-3.3V)*%
X124270000Y-115120000D03*
D23*
%TO.P,K1,A2*%
%TO.N,Net-(D1-K)*%
X124270000Y-107500000D03*
%TD*%
D22*
%TO.P,D1,1,K*%
%TO.N,Net-(D1-K)*%
X151195000Y-92040000D03*
D23*
%TO.P,D1,2,A*%
%TO.N,Net-(D1-A)*%
X153735000Y-92040000D03*
%TD*%
D24*
%TO.N,Net-(D1-K)*%
X150900000Y-105290000D02*
X151195000Y-104995000D01*
X150900000Y-108785000D02*
X150900000Y-105290000D01*
%TO.N,Net-(J1-VBUS)*%
X148300000Y-106500000D02*
X149533070Y-105266930D01*
X148300000Y-108785000D02*
X148300000Y-106500000D01*
%TO.N,Net-(D1-K)*%
X154232471Y-93241000D02*
X152396000Y-93241000D01*
X154936000Y-92537471D02*
X154232471Y-93241000D01*
X154936000Y-81799001D02*
X154936000Y-92537471D01*
X152396000Y-93241000D02*
X151195000Y-92040000D01*
X157500001Y-79235000D02*
X154936000Y-81799001D01*
X158500000Y-79235000D02*
X157500001Y-79235000D01*
%TO.N,Net-(U1-3.3V)*%
X123069000Y-113919000D02*
X124270000Y-115120000D01*
X123069000Y-74700506D02*
X123069000Y-113919000D01*
X117828506Y-71803000D02*
X120171494Y-71803000D01*
X120171494Y-71803000D02*
X123069000Y-74700506D01*
X117429000Y-71403494D02*
X117828506Y-71803000D01*
X117429000Y-67536506D02*
X117429000Y-71403494D01*
X117828506Y-67137000D02*
X117429000Y-67536506D01*
X130637000Y-67137000D02*
X117828506Y-67137000D01*
X134500000Y-71000000D02*
X130637000Y-67137000D01*
%TO.N,Net-(U1-GPIO12)*%
X175801000Y-82833900D02*
X172202100Y-79235000D01*
X172202100Y-79235000D02*
X163500000Y-79235000D01*
X155199000Y-125601000D02*
X175801000Y-104999000D01*
X175801000Y-104999000D02*
X175801000Y-82833900D01*
X106033900Y-125601000D02*
X155199000Y-125601000D01*
X91800000Y-111367100D02*
X106033900Y-125601000D01*
X91800000Y-79400000D02*
X91800000Y-111367100D01*
X91823000Y-79423000D02*
X91800000Y-79400000D01*
X120171494Y-79423000D02*
X91823000Y-79423000D01*
X120571000Y-79822506D02*
X120171494Y-79423000D01*
X120571000Y-81869000D02*
X120571000Y-79822506D01*
X119000000Y-83440000D02*
X120571000Y-81869000D01*
%TO.N,Net-(U1-GPIO5)*%
X134430000Y-117970000D02*
X134430000Y-115120000D01*
X112777164Y-118000000D02*
X134400000Y-118000000D01*
X95378000Y-94362000D02*
X95378000Y-100600836D01*
X95378000Y-100600836D02*
X112777164Y-118000000D01*
X96140000Y-93600000D02*
X95378000Y-94362000D01*
X134400000Y-118000000D02*
X134430000Y-117970000D01*
%TO.N,Net-(U1-GPIO14)*%
X172905000Y-80505000D02*
X163500000Y-80505000D01*
X173200000Y-85200000D02*
X175400000Y-83000000D01*
X173200000Y-96800000D02*
X173200000Y-85200000D01*
X147400000Y-122600000D02*
X173200000Y-96800000D01*
X108800000Y-122600000D02*
X147400000Y-122600000D01*
X106200000Y-125200000D02*
X108800000Y-122600000D01*
X175400000Y-83000000D02*
X172905000Y-80505000D01*
X93000000Y-112000000D02*
X106200000Y-125200000D01*
X94363000Y-79837000D02*
X93000000Y-81200000D01*
X117937000Y-79837000D02*
X94363000Y-79837000D01*
X93000000Y-81200000D02*
X93000000Y-112000000D01*
X119000000Y-80900000D02*
X117937000Y-79837000D01*
%TO.N,Net-(D1-A)*%
X135405008Y-72249000D02*
X153735000Y-90578992D01*
X153735000Y-90578992D02*
X153735000Y-92040000D01*
X123049000Y-72249000D02*
X135405008Y-72249000D01*
X119000000Y-68200000D02*
X123049000Y-72249000D01*
%TO.N,Net-(J1-VBUS)*%
X134500000Y-90233860D02*
X149533070Y-105266930D01*
X134500000Y-73300000D02*
X134500000Y-90233860D01*
%TO.N,Net-(D1-K)*%
X151195000Y-104995000D02*
X151195000Y-92040000D01*
%TO.N,Net-(U1-GPIO12)*%
X163500000Y-79235000D02*
X162681968Y-79235000D01*
%TO.N,Net-(U1-3.3V)*%
X97711000Y-71403494D02*
X97711000Y-69771000D01*
X94968506Y-71803000D02*
X97311494Y-71803000D01*
X93200000Y-70034494D02*
X94968506Y-71803000D01*
X97311494Y-71803000D02*
X97711000Y-71403494D01*
X97711000Y-69771000D02*
X96140000Y-68200000D01*
X93200000Y-64800000D02*
X93200000Y-70034494D01*
X134600000Y-64800000D02*
X93200000Y-64800000D01*
X140800000Y-71000000D02*
X134600000Y-64800000D01*
X130299000Y-66799000D02*
X134500000Y-71000000D01*
X97541000Y-66799000D02*
X130299000Y-66799000D01*
X96140000Y-68200000D02*
X97541000Y-66799000D01*
%TO.N,Net-(D1-K)*%
X94200000Y-65600000D02*
X94200000Y-68800000D01*
X131400000Y-65600000D02*
X94200000Y-65600000D01*
X134500000Y-68700000D02*
X131400000Y-65600000D01*
X94200000Y-68800000D02*
X96140000Y-70740000D01*
X157165000Y-79235000D02*
X158500000Y-79235000D01*
X157000000Y-79400000D02*
X157165000Y-79235000D01*
X152600000Y-73200000D02*
X157000000Y-77600000D01*
X144600000Y-73200000D02*
X152600000Y-73200000D01*
X157000000Y-77600000D02*
X157000000Y-79400000D01*
X139001000Y-73201000D02*
X144599000Y-73201000D01*
X144599000Y-73201000D02*
X144600000Y-73200000D01*
X134500000Y-68700000D02*
X139001000Y-73201000D01*
%TO.N,Net-(U1-3.3V)*%
X156695000Y-76695000D02*
X158500000Y-76695000D01*
X151000000Y-71000000D02*
X156695000Y-76695000D01*
X140800000Y-71000000D02*
X151000000Y-71000000D01*
%TO.N,Net-(U1-GPIO14)*%
X119274000Y-81174000D02*
X119000000Y-80900000D01*
%TD*%
M02*
