%TF.GenerationSoftware,KiCad,Pcbnew,9.0.0*%
%TF.CreationDate,2025-04-09T12:13:31+05:30*%
%TF.ProjectId,ES lab Assignment,4553206c-6162-4204-9173-7369676e6d65,rev?*%
%TF.SameCoordinates,Original*%
%TF.FileFunction,Soldermask,Top*%
%TF.FilePolarity,Negative*%
%FSLAX46Y46*%
G04 Gerber Fmt 4.6, Leading zero omitted, Abs format (unit mm)*
G04 Created by KiCad (PCBNEW 9.0.0) date 2025-04-09 12:13:31*
%MOMM*%
%LPD*%
G01*
G04 APERTURE LIST*
G04 Aperture macros list*
%AMRoundRect*
0 Rectangle with rounded corners*
0 $1 Rounding radius*
0 $2 $3 $4 $5 $6 $7 $8 $9 X,Y pos of 4 corners*
0 Add a 4 corners polygon primitive as box body*
4,1,4,$2,$3,$4,$5,$6,$7,$8,$9,$2,$3,0*
0 Add four circle primitives for the rounded corners*
1,1,$1+$1,$2,$3*
1,1,$1+$1,$4,$5*
1,1,$1+$1,$6,$7*
1,1,$1+$1,$8,$9*
0 Add four rect primitives between the rounded corners*
20,1,$1+$1,$2,$3,$4,$5,0*
20,1,$1+$1,$4,$5,$6,$7,0*
20,1,$1+$1,$6,$7,$8,$9,0*
20,1,$1+$1,$8,$9,$2,$3,0*%
G04 Aperture macros list end*
%ADD10R,0.400000X1.650000*%
%ADD11R,1.825000X0.700000*%
%ADD12R,2.000000X1.500000*%
%ADD13R,1.350000X2.000000*%
%ADD14O,1.350000X1.700000*%
%ADD15O,1.100000X1.500000*%
%ADD16R,1.430000X2.500000*%
%ADD17RoundRect,0.375000X-0.625000X-0.375000X0.625000X-0.375000X0.625000X0.375000X-0.625000X0.375000X0*%
%ADD18RoundRect,0.500000X-0.500000X-1.400000X0.500000X-1.400000X0.500000X1.400000X-0.500000X1.400000X0*%
%ADD19RoundRect,0.150000X-0.850000X-0.150000X0.850000X-0.150000X0.850000X0.150000X-0.850000X0.150000X0*%
%ADD20RoundRect,0.381000X-0.889000X-0.381000X0.889000X-0.381000X0.889000X0.381000X-0.889000X0.381000X0*%
%ADD21C,2.200000*%
%ADD22R,1.800000X1.800000*%
%ADD23C,1.800000*%
G04 APERTURE END LIST*
D10*
%TO.C,J1*%
X148300000Y-108785000D03*
X148950000Y-108785000D03*
X149600000Y-108785000D03*
X150250000Y-108785000D03*
X150900000Y-108785000D03*
D11*
X146650000Y-109985000D03*
D12*
X146750000Y-108685000D03*
D13*
X146870000Y-110735000D03*
D14*
X146870000Y-111665000D03*
D15*
X147180000Y-108665000D03*
D16*
X148640000Y-111935000D03*
X150560000Y-111935000D03*
D15*
X152020000Y-108665000D03*
D14*
X152330000Y-111665000D03*
D13*
X152350000Y-110735000D03*
D12*
X152500000Y-108665000D03*
D11*
X152600000Y-109985000D03*
%TD*%
D17*
%TO.C,U4*%
X134500000Y-68700000D03*
X134500000Y-71000000D03*
D18*
X140800000Y-71000000D03*
D17*
X134500000Y-73300000D03*
%TD*%
D19*
%TO.C,U2*%
X158500000Y-74155000D03*
X158500000Y-75425000D03*
X158500000Y-76695000D03*
X158500000Y-77965000D03*
X158500000Y-79235000D03*
X158500000Y-80505000D03*
X158500000Y-81775000D03*
X158500000Y-83045000D03*
X163500000Y-83045000D03*
X163500000Y-81775000D03*
X163500000Y-80505000D03*
X163500000Y-79235000D03*
X163500000Y-77965000D03*
X163500000Y-76695000D03*
X163500000Y-75425000D03*
X163500000Y-74155000D03*
%TD*%
D20*
%TO.C,U1*%
X96140000Y-68200000D03*
X96140000Y-70740000D03*
X96140000Y-73280000D03*
X96140000Y-75820000D03*
X96140000Y-78360000D03*
X96140000Y-80900000D03*
X96140000Y-83440000D03*
X96140000Y-85980000D03*
X96140000Y-88520000D03*
X96140000Y-91060000D03*
X96140000Y-93600000D03*
X119000000Y-93600000D03*
X119000000Y-91060000D03*
X119000000Y-88520000D03*
X119000000Y-85980000D03*
X119000000Y-83440000D03*
X119000000Y-80900000D03*
X119000000Y-78360000D03*
X119000000Y-75820000D03*
X119000000Y-73280000D03*
X119000000Y-70740000D03*
X119000000Y-68200000D03*
%TD*%
D21*
%TO.C,K1*%
X134430000Y-115120000D03*
X142050000Y-107500000D03*
X142050000Y-115120000D03*
D22*
X124270000Y-115120000D03*
D23*
X124270000Y-107500000D03*
%TD*%
D22*
%TO.C,D1*%
X151195000Y-92040000D03*
D23*
X153735000Y-92040000D03*
%TD*%
M02*
