%TF.GenerationSoftware,KiCad,Pcbnew,9.0.0*%
%TF.CreationDate,2025-04-09T12:13:31+05:30*%
%TF.ProjectId,ES lab Assignment,4553206c-6162-4204-9173-7369676e6d65,rev?*%
%TF.SameCoordinates,Original*%
%TF.FileFunction,Legend,Top*%
%TF.FilePolarity,Positive*%
%FSLAX46Y46*%
G04 Gerber Fmt 4.6, Leading zero omitted, Abs format (unit mm)*
G04 Created by KiCad (PCBNEW 9.0.0) date 2025-04-09 12:13:31*
%MOMM*%
%LPD*%
G01*
G04 APERTURE LIST*
%ADD10C,0.150000*%
%ADD11C,0.120000*%
G04 APERTURE END LIST*
D10*
X151216666Y-106639819D02*
X151216666Y-107354104D01*
X151216666Y-107354104D02*
X151169047Y-107496961D01*
X151169047Y-107496961D02*
X151073809Y-107592200D01*
X151073809Y-107592200D02*
X150930952Y-107639819D01*
X150930952Y-107639819D02*
X150835714Y-107639819D01*
X152216666Y-107639819D02*
X151645238Y-107639819D01*
X151930952Y-107639819D02*
X151930952Y-106639819D01*
X151930952Y-106639819D02*
X151835714Y-106782676D01*
X151835714Y-106782676D02*
X151740476Y-106877914D01*
X151740476Y-106877914D02*
X151645238Y-106925533D01*
X136888095Y-65954819D02*
X136888095Y-66764342D01*
X136888095Y-66764342D02*
X136935714Y-66859580D01*
X136935714Y-66859580D02*
X136983333Y-66907200D01*
X136983333Y-66907200D02*
X137078571Y-66954819D01*
X137078571Y-66954819D02*
X137269047Y-66954819D01*
X137269047Y-66954819D02*
X137364285Y-66907200D01*
X137364285Y-66907200D02*
X137411904Y-66859580D01*
X137411904Y-66859580D02*
X137459523Y-66764342D01*
X137459523Y-66764342D02*
X137459523Y-65954819D01*
X138364285Y-66288152D02*
X138364285Y-66954819D01*
X138126190Y-65907200D02*
X137888095Y-66621485D01*
X137888095Y-66621485D02*
X138507142Y-66621485D01*
X160238095Y-72154819D02*
X160238095Y-72964342D01*
X160238095Y-72964342D02*
X160285714Y-73059580D01*
X160285714Y-73059580D02*
X160333333Y-73107200D01*
X160333333Y-73107200D02*
X160428571Y-73154819D01*
X160428571Y-73154819D02*
X160619047Y-73154819D01*
X160619047Y-73154819D02*
X160714285Y-73107200D01*
X160714285Y-73107200D02*
X160761904Y-73059580D01*
X160761904Y-73059580D02*
X160809523Y-72964342D01*
X160809523Y-72964342D02*
X160809523Y-72154819D01*
X161238095Y-72250057D02*
X161285714Y-72202438D01*
X161285714Y-72202438D02*
X161380952Y-72154819D01*
X161380952Y-72154819D02*
X161619047Y-72154819D01*
X161619047Y-72154819D02*
X161714285Y-72202438D01*
X161714285Y-72202438D02*
X161761904Y-72250057D01*
X161761904Y-72250057D02*
X161809523Y-72345295D01*
X161809523Y-72345295D02*
X161809523Y-72440533D01*
X161809523Y-72440533D02*
X161761904Y-72583390D01*
X161761904Y-72583390D02*
X161190476Y-73154819D01*
X161190476Y-73154819D02*
X161809523Y-73154819D01*
X106808095Y-101309819D02*
X106808095Y-102119342D01*
X106808095Y-102119342D02*
X106855714Y-102214580D01*
X106855714Y-102214580D02*
X106903333Y-102262200D01*
X106903333Y-102262200D02*
X106998571Y-102309819D01*
X106998571Y-102309819D02*
X107189047Y-102309819D01*
X107189047Y-102309819D02*
X107284285Y-102262200D01*
X107284285Y-102262200D02*
X107331904Y-102214580D01*
X107331904Y-102214580D02*
X107379523Y-102119342D01*
X107379523Y-102119342D02*
X107379523Y-101309819D01*
X108379523Y-102309819D02*
X107808095Y-102309819D01*
X108093809Y-102309819D02*
X108093809Y-101309819D01*
X108093809Y-101309819D02*
X107998571Y-101452676D01*
X107998571Y-101452676D02*
X107903333Y-101547914D01*
X107903333Y-101547914D02*
X107808095Y-101595533D01*
X132831905Y-105674819D02*
X132831905Y-104674819D01*
X133403333Y-105674819D02*
X132974762Y-105103390D01*
X133403333Y-104674819D02*
X132831905Y-105246247D01*
X134355714Y-105674819D02*
X133784286Y-105674819D01*
X134070000Y-105674819D02*
X134070000Y-104674819D01*
X134070000Y-104674819D02*
X133974762Y-104817676D01*
X133974762Y-104817676D02*
X133879524Y-104912914D01*
X133879524Y-104912914D02*
X133784286Y-104960533D01*
X151726905Y-90534819D02*
X151726905Y-89534819D01*
X151726905Y-89534819D02*
X151965000Y-89534819D01*
X151965000Y-89534819D02*
X152107857Y-89582438D01*
X152107857Y-89582438D02*
X152203095Y-89677676D01*
X152203095Y-89677676D02*
X152250714Y-89772914D01*
X152250714Y-89772914D02*
X152298333Y-89963390D01*
X152298333Y-89963390D02*
X152298333Y-90106247D01*
X152298333Y-90106247D02*
X152250714Y-90296723D01*
X152250714Y-90296723D02*
X152203095Y-90391961D01*
X152203095Y-90391961D02*
X152107857Y-90487200D01*
X152107857Y-90487200D02*
X151965000Y-90534819D01*
X151965000Y-90534819D02*
X151726905Y-90534819D01*
X153250714Y-90534819D02*
X152679286Y-90534819D01*
X152965000Y-90534819D02*
X152965000Y-89534819D01*
X152965000Y-89534819D02*
X152869762Y-89677676D01*
X152869762Y-89677676D02*
X152774524Y-89772914D01*
X152774524Y-89772914D02*
X152679286Y-89820533D01*
D11*
%TO.C,J1*%
X145450000Y-110485000D02*
X145450000Y-108935000D01*
X145450000Y-110485000D02*
X145750000Y-110485000D01*
X145750000Y-113285000D02*
X145750000Y-110485000D01*
X147900000Y-107235000D02*
X148700000Y-107235000D01*
X148300000Y-107685000D02*
X147900000Y-107235000D01*
X148700000Y-107235000D02*
X148300000Y-107685000D01*
X153450000Y-110485000D02*
X153750000Y-110485000D01*
X153450000Y-113285000D02*
X153450000Y-110485000D01*
X153750000Y-110485000D02*
X153750000Y-108935000D01*
%TO.C,U4*%
X135800000Y-67590000D02*
X139560000Y-67590000D01*
X135800000Y-74410000D02*
X139560000Y-74410000D01*
X139560000Y-67590000D02*
X139560000Y-68850000D01*
X139560000Y-74410000D02*
X139560000Y-73150000D01*
X134520000Y-67690000D02*
X134280000Y-67360000D01*
X134760000Y-67360000D01*
X134520000Y-67690000D01*
G36*
X134520000Y-67690000D02*
G01*
X134280000Y-67360000D01*
X134760000Y-67360000D01*
X134520000Y-67690000D01*
G37*
%TO.C,U2*%
X161000000Y-73540000D02*
X159050000Y-73540000D01*
X161000000Y-73540000D02*
X162950000Y-73540000D01*
X161000000Y-83660000D02*
X159050000Y-83660000D01*
X161000000Y-83660000D02*
X162950000Y-83660000D01*
X158275000Y-73595000D02*
X158035000Y-73265000D01*
X158515000Y-73265000D01*
X158275000Y-73595000D01*
G36*
X158275000Y-73595000D02*
G01*
X158035000Y-73265000D01*
X158515000Y-73265000D01*
X158275000Y-73595000D01*
G37*
%TO.C,U1*%
X96013000Y-66803000D02*
X96013000Y-67184000D01*
X96013000Y-67184000D02*
X94743000Y-67184000D01*
X96013000Y-94870000D02*
X96013000Y-100077000D01*
X96013000Y-100077000D02*
X119127000Y-100077000D01*
X119127000Y-66803000D02*
X96013000Y-66803000D01*
X119127000Y-67184000D02*
X119127000Y-66803000D01*
X119127000Y-100077000D02*
X119127000Y-94870000D01*
%TO.C,K1*%
X122570000Y-116620000D02*
X122570000Y-115120000D01*
X122670000Y-106120000D02*
X143070000Y-106120000D01*
X122670000Y-116520000D02*
X122670000Y-106120000D01*
X123670000Y-111020000D02*
X123670000Y-111720000D01*
X123670000Y-111720000D02*
X124870000Y-111720000D01*
X124270000Y-111020000D02*
X124270000Y-109920000D01*
X124270000Y-111720000D02*
X124270000Y-112820000D01*
X124270000Y-116620000D02*
X122570000Y-116620000D01*
X124470000Y-111720000D02*
X124070000Y-111020000D01*
X124870000Y-111020000D02*
X123670000Y-111020000D01*
X124870000Y-111720000D02*
X124870000Y-111020000D01*
X142470000Y-106120000D02*
X143070000Y-106720000D01*
X142870000Y-106120000D02*
X143070000Y-106320000D01*
X143070000Y-106120000D02*
X143070000Y-106720000D01*
X143070000Y-106420000D02*
X142670000Y-106120000D01*
X143070000Y-106520000D02*
X142670000Y-106120000D01*
X143070000Y-106620000D02*
X142570000Y-106120000D01*
X143070000Y-108320000D02*
X143070000Y-114320000D01*
X143070000Y-115920000D02*
X143070000Y-116520000D01*
X143070000Y-116520000D02*
X122670000Y-116520000D01*
%TO.C,D1*%
X150755000Y-93250000D02*
X150755000Y-94970000D01*
X150755000Y-94970000D02*
X154175000Y-94970000D01*
X150875000Y-93250000D02*
X150875000Y-94970000D01*
X150995000Y-93250000D02*
X150995000Y-94970000D01*
X151195000Y-93120000D02*
X151195000Y-93120000D01*
X151195000Y-93120000D02*
X151195000Y-93250000D01*
X151195000Y-93250000D02*
X151195000Y-93120000D01*
X151195000Y-93250000D02*
X151195000Y-93250000D01*
X151505000Y-94970000D02*
X151505000Y-96370000D01*
X151505000Y-96370000D02*
X153425000Y-96370000D01*
X153425000Y-94970000D02*
X151505000Y-94970000D01*
X153425000Y-96370000D02*
X153425000Y-94970000D01*
X153735000Y-93120000D02*
X153735000Y-93120000D01*
X153735000Y-93120000D02*
X153735000Y-93250000D01*
X153735000Y-93250000D02*
X153735000Y-93120000D01*
X153735000Y-93250000D02*
X153735000Y-93250000D01*
X154175000Y-93250000D02*
X150755000Y-93250000D01*
X154175000Y-94970000D02*
X154175000Y-93250000D01*
%TD*%
M02*
